<?xml version="1.0" encoding="UTF-8" standalone="no"?>
<svg
   xmlns:dc="http://purl.org/dc/elements/1.1/"
   xmlns:cc="http://creativecommons.org/ns#"
   xmlns:rdf="http://www.w3.org/1999/02/22-rdf-syntax-ns#"
   xmlns:svg="http://www.w3.org/2000/svg"
   xmlns="http://www.w3.org/2000/svg"
   xmlns:sodipodi="http://sodipodi.sourceforge.net/DTD/sodipodi-0.dtd"
   xmlns:inkscape="http://www.inkscape.org/namespaces/inkscape"
   width="50"
   height="50"
   viewBox="0 0 13.229166 13.229167"
   version="1.1"
   id="svg8"
   inkscape:version="1.0beta2 (2b71d25, 2019-12-03)"
   sodipodi:docname="connectPro.svg">
  <defs
     id="defs2" />
  <sodipodi:namedview
     showguides="false"
     id="base"
     pagecolor="#ffffff"
     bordercolor="#666666"
     borderopacity="1.0"
     inkscape:pageopacity="0.0"
     inkscape:pageshadow="2"
     inkscape:zoom="16"
     inkscape:cx="17.695127"
     inkscape:cy="27.590155"
     inkscape:document-units="mm"
     inkscape:current-layer="g1216"
     inkscape:document-rotation="0"
     showgrid="false"
     units="px"
     inkscape:window-width="1600"
     inkscape:window-height="1209"
     inkscape:window-x="928"
     inkscape:window-y="23"
     inkscape:window-maximized="0" />
  <metadata
     id="metadata5">
    <rdf:RDF>
      <cc:Work
         rdf:about="">
        <dc:format>image/svg+xml</dc:format>
        <dc:type
           rdf:resource="http://purl.org/dc/dcmitype/StillImage" />
        <dc:title />
      </cc:Work>
    </rdf:RDF>
  </metadata>
  <g
     inkscape:label="Layer 3"
     id="layer3"
     inkscape:groupmode="layer">
    <g
       id="g1216"
       transform="matrix(1,0,0,-1,-0.0368184,13.948818)">
      <g
         transform="translate(-0.02997255,-0.2539525)"
         id="g1154">
        <rect
           y="6.8108592"
           x="6.149262"
           height="0.25395274"
           width="0.54038781"
           id="rect1150"
           style="fill:#b3b3b3;fill-opacity:1;stroke-width:0.252152" />
        <rect
           ry="0.02867466"
           y="6.8108592"
           x="6.659677"
           height="0.25439569"
           width="0.057582311"
           id="rect1152"
           style="fill:#b3b3b3;fill-opacity:1;stroke-width:0.264047" />
      </g>
      <g
         transform="translate(-0.00404945,-0.00577587)"
         style="fill:#9fa5a4;fill-opacity:1"
         id="g1160">
        <rect
           y="6.8108592"
           x="6.149262"
           height="0.25395274"
           width="0.54038781"
           id="rect1156"
           style="fill:#9fa5a4;fill-opacity:1;stroke-width:0.252152" />
        <rect
           ry="0.02867466"
           y="6.8108592"
           x="6.659677"
           height="0.25439569"
           width="0.057582311"
           id="rect1158"
           style="fill:#9fa5a4;fill-opacity:1;stroke-width:0.264047" />
      </g>
      <g
         transform="matrix(0.8161943,0,0,1,2.3248362,-0.95731021)"
         id="g1166">
        <path
           inkscape:connector-curvature="0"
           transform="matrix(0.26458333,0,0,0.26458333,-0.06681739,0.76839989)"
           d="m 26.074219,27.28125 c 2.971017,0.01118 6.042985,0.05664 8.980469,0.05664 3.309301,0 9.865234,-0.695313 9.865234,-0.695313 0.786969,0 1.419922,-0.63295 1.419922,-1.419922 0,-0.786971 -0.632953,-1.421875 -1.419922,-1.421875 0,0 -6.491478,0.50586 -9.800781,0.50586 -3.034126,0 -6.019622,0.04781 -9.044922,0.05664 z"
           style="fill:#1d64c4;fill-opacity:1;stroke:none;stroke-width:0.999999;stroke-opacity:1"
           id="path1162" />
        <path
           sodipodi:nodetypes="ccccccc"
           inkscape:connector-curvature="0"
           d="m 6.8319863,7.9865639 c 1.0549341,0.1072487 2.0730273,0.034581 2.9372882,-0.00517 1.1043895,-0.050793 1.6799585,-0.128262 2.0763595,-0.175183 0.346047,-0.040965 0.348299,-0.4402833 0.348299,-0.4402833 0,0 -1.692169,0.1411481 -2.6391157,0.175183 -0.8481147,0.030482 -1.8131332,0.019942 -2.722831,0.014986 z"
           style="fill:#1d5fc4;fill-opacity:1;stroke:none;stroke-width:0.266367;stroke-opacity:1"
           id="path1164" />
      </g>
      <g
         transform="matrix(0.80063676,0,0,1,0.26996395,-0.99348878)"
         id="g1172">
        <path
           inkscape:connector-curvature="0"
           transform="matrix(0.26458333,0,0,0.26458333,-0.06681739,0.76839989)"
           d="m 24.054688,24.369141 h -8.980469 c -3.309302,0 -9.8652346,-0.56836 -9.8652346,-0.56836 -0.7869717,0 -1.421875,0.634904 -1.421875,1.421875 0,0.786972 0.6366177,1.368004 1.421875,1.419922 0,0 6.2588896,0.522217 9.5488276,0.63086 3.004626,0.09922 6.235364,0.01497 9.296876,0 z"
           style="fill:#1d64c4;fill-opacity:1;stroke:none;stroke-width:0.999999;stroke-opacity:1"
           id="path1168" />
        <path
           sodipodi:nodetypes="csccscc"
           inkscape:connector-curvature="0"
           d="M 6.2976521,7.5519654 C 5.3705637,7.547817 4.4281317,7.5444287 3.5665526,7.5137246 2.6365033,7.4805805 0.93518863,7.3633463 0.93518863,7.3633463 c 0,0 -2.1572e-4,0.3948139 0.31936037,0.434082 0.2787654,0.034254 0.7364587,0.06884 1.7027385,0.1224733 0.8971,0.049793 2.2355245,0.1794002 3.3403646,0.064595 z"
           style="fill:#1d5fc4;fill-opacity:1;stroke:none;stroke-width:0.266367;stroke-opacity:1"
           id="path1170" />
      </g>
      <g
         id="g1186"
         transform="matrix(0.2040086,0,0,1.6330503,5.0359712,-5.6179303)">
        <g
           transform="matrix(0.85568469,0,0,1,0.08852052,0)"
           id="g1178">
          <path
             inkscape:connector-curvature="0"
             d="M 6.2976521,7.2160684 H 3.9215697 c -0.8755862,0 -1.8519859,0.00384 -1.8519859,0.00384 -0.2003319,-0.015343 -1.13439517,0.011089 -1.13439517,0.1876122 0,0.1765234 0.16843847,0.306853 0.37620437,0.3184986 0,0 1.7140231,0.099287 2.5844859,0.1236569 0.7949739,0.022256 1.5917481,0.021208 2.4017732,0.01785 z"
             style="fill:#1d64c4;fill-opacity:1;stroke:none;stroke-width:0.243614;stroke-opacity:1"
             id="path1174"
             sodipodi:nodetypes="cscscccc" />
          <path
             inkscape:connector-curvature="0"
             d="m 6.2739888,7.6107817 c -0.9270884,-0.00415 -2.277601,-0.022049 -3.1445303,-0.033822 -0.3372694,-0.00458 -1.545412,0.00465 -1.9019362,-0.093642 0,0 -0.00433,0.00207 -0.25627006,0.00116 -0.80997893,-0.00291 -0.0362798,0.2736782 0.28329676,0.3129463 0.2787654,0.034254 0.7364587,0.06884 1.7027385,0.1224733 0.8971,0.049793 2.1735621,0.063645 3.3403646,0.064595 z"
             style="fill:#0457a3;fill-opacity:1;stroke:none;stroke-width:0.266367;stroke-opacity:1"
             id="path1176"
             sodipodi:nodetypes="cssscccc" />
        </g>
        <g
           id="g1184"
           transform="matrix(0.85568469,0,0,1,0.08852052,0)">
          <path
             sodipodi:nodetypes="cscscccc"
             id="path1180"
             style="fill:#1d64c4;fill-opacity:1;stroke:none;stroke-width:0.243614;stroke-opacity:1"
             d="M 6.2976521,7.2160684 H 3.9215697 c -0.8755862,0 -1.8519859,0.00384 -1.8519859,0.00384 -0.2003319,-0.015343 -1.13439517,0.011089 -1.13439517,0.1876122 0,0.1765234 0.16843847,0.306853 0.37620437,0.3184986 0,0 1.7140231,0.099287 2.5844859,0.1236569 0.7949739,0.022256 1.5917481,0.021208 2.4017732,0.01785 z"
             inkscape:connector-curvature="0" />
          <path
             sodipodi:nodetypes="cssscccc"
             id="path1182"
             style="fill:#0457a3;fill-opacity:1;stroke:none;stroke-width:0.266367;stroke-opacity:1"
             d="m 6.2739888,7.6107817 c -0.9270884,-0.00415 -2.277601,-0.022049 -3.1445303,-0.033822 -0.3372694,-0.00458 -1.545412,0.00465 -1.9019362,-0.093642 0,0 -0.00433,0.00207 -0.25627006,0.00116 -0.80997893,-0.00291 -0.0362798,0.2736782 0.28329676,0.3129463 0.2787654,0.034254 0.7364587,0.06884 1.7027385,0.1224733 0.8971,0.049793 2.1735621,0.063645 3.3403646,0.064595 z"
             inkscape:connector-curvature="0" />
        </g>
      </g>
      <g
         id="g1208">
        <g
           id="g1200"
           transform="matrix(-0.189438,0,0,1.6330503,8.156375,-5.6166853)">
          <g
             transform="matrix(0.85568469,0,0,1,0.08852052,0)"
             id="g1192">
            <path
               inkscape:connector-curvature="0"
               d="M 6.2976521,7.2160684 H 3.9215697 c -0.8755862,0 -1.8519859,0.00384 -1.8519859,0.00384 -0.2003319,-0.015343 -1.13439517,0.011089 -1.13439517,0.1876122 0,0.1765234 0.16843847,0.306853 0.37620437,0.3184986 0,0 1.7140231,0.099287 2.5844859,0.1236569 0.7949739,0.022256 1.5917481,0.021208 2.4017732,0.01785 z"
               style="fill:#1d64c4;fill-opacity:1;stroke:none;stroke-width:0.243614;stroke-opacity:1"
               id="path1188"
               sodipodi:nodetypes="cscscccc" />
            <path
               inkscape:connector-curvature="0"
               d="m 6.2739888,7.6107817 c -0.795259,8.3e-4 -2.2651948,-0.02162 -3.1445303,-0.033822 -0.3371326,-0.00468 -1.545412,0.00465 -1.9019362,-0.093642 0,0 -0.00433,0.00207 -0.25627006,0.00116 -0.80997893,-0.00291 -0.0362798,0.2736782 0.28329676,0.3129463 0.2787654,0.034254 0.7364587,0.06884 1.7027385,0.1224733 0.8971,0.049793 2.1735621,0.063645 3.3403646,0.064595 z"
               style="fill:#0457a3;fill-opacity:1;stroke:none;stroke-width:0.266367;stroke-opacity:1"
               id="path1190"
               sodipodi:nodetypes="cssscccc" />
          </g>
          <g
             id="g1198"
             transform="matrix(0.85568469,0,0,1,0.08852052,0)">
            <path
               sodipodi:nodetypes="cscscccc"
               id="path1194"
               style="fill:#1d64c4;fill-opacity:1;stroke:none;stroke-width:0.243614;stroke-opacity:1"
               d="M 6.2976521,7.2160684 H 3.9215697 c -0.8755862,0 -1.8519859,0.00384 -1.8519859,0.00384 -0.2003319,-0.015343 -1.13439517,0.011089 -1.13439517,0.1876122 0,0.1765234 0.16843847,0.306853 0.37620437,0.3184986 0,0 1.7140231,0.099287 2.5844859,0.1236569 0.7949739,0.022256 1.5917481,0.021208 2.4017732,0.01785 z"
               inkscape:connector-curvature="0" />
            <path
               sodipodi:nodetypes="cssscccc"
               id="path1196"
               style="fill:#0457a3;fill-opacity:1;stroke:none;stroke-width:0.266367;stroke-opacity:1"
               d="m 5.3594188,7.6056672 c -0.9270884,-0.00415 -1.363031,-0.016934 -2.2299603,-0.028708 -0.3372694,-0.00458 -1.545412,0.00465 -1.9019362,-0.093642 0,0 -0.00433,0.00207 -0.25627006,0.00116 -0.80997893,-0.00291 -0.0362798,0.2736782 0.28329676,0.3129463 0.2787654,0.034254 0.7364587,0.06884 1.7027385,0.1224733 0.8971,0.049793 2.1735621,0.063645 3.3403646,0.064595 z"
               inkscape:connector-curvature="0" />
          </g>
        </g>
        <path
           sodipodi:type="star"
           style="fill:#045795;fill-opacity:1;stroke-width:0.264583"
           id="path1202"
           sodipodi:sides="3"
           sodipodi:cx="7.1187615"
           sodipodi:cy="6.1675177"
           sodipodi:r1="0.20630383"
           sodipodi:r2="0.40419981"
           sodipodi:arg1="2.2272215"
           sodipodi:arg2="-2.9756327"
           inkscape:flatsided="false"
           inkscape:rounded="0"
           inkscape:randomized="0"
           inkscape:transform-center-x="-0.028464112"
           inkscape:transform-center-y="0.12937089"
           transform="matrix(0.16787311,1.3973523,-0.20389889,1.1196756,7.231404,-10.053706)"
           d="M 6.9928566,6.3309472 6.7201153,6.1007442 7.0401799,5.976766 7.3759122,5.8556667 7.3232482,6.1948398 7.2602571,6.5461421 Z" />
        <rect
           style="fill:#333333;fill-opacity:1;stroke-width:0.264583"
           id="rect1204"
           width="0.0088588167"
           height="0.2716704"
           x="8.8129921"
           y="4.5838985"
           transform="rotate(15.848113)" />
        <rect
           transform="rotate(15.848113)"
           y="4.3364019"
           x="8.7121649"
           height="0.2716704"
           width="0.0088588167"
           id="rect1206"
           style="fill:#333333;fill-opacity:1;stroke-width:0.264583" />
      </g>
      <g
         id="g1214">
        <rect
           style="fill:#b3b3b3;fill-opacity:1;stroke-width:0.252152"
           id="rect1210"
           width="0.54038781"
           height="0.25395274"
           x="6.149262"
           y="6.8108592" />
        <rect
           style="fill:#b3b3b3;fill-opacity:1;stroke-width:0.264047"
           id="rect1212"
           width="0.057582311"
           height="0.25439569"
           x="6.659677"
           y="6.8108592"
           ry="0.02867466" />
      </g>
    </g>
  </g>
  <g
     inkscape:label="Layer 1"
     inkscape:groupmode="layer"
     id="layer1"
     style="display:inline">
    <path
       id="rect10"
       style="fill:#2a8c59;fill-opacity:1;fill-rule:evenodd;stroke-width:0.264583"
       d="m 4.2900296,1.1811756 4.7719497,0.023624 c 0,0 -0.1252091,1.7490862 -0.2598586,2.6458331 -0.1180535,0.7862202 -0.1653646,1.7402651 -0.1653646,2.645833 0,0.905568 0.070871,1.5985244 0.1889886,2.8584452 0.084527,0.9016141 0.2362351,2.7167041 0.2362351,2.7167041 L 4.2900296,12.047991 C 4.3364197,10.075322 4.5332378,8.2559066 4.6136428,6.4807165 4.6983188,4.6112311 4.6751238,2.9753559 4.2900296,1.1811756 Z"
       inkscape:connector-curvature="0"
       sodipodi:nodetypes="ccsssccsc" />
    <path
       sodipodi:nodetypes="ccsssccsc"
       inkscape:connector-curvature="0"
       d="m 4.8333707,1.5601258 3.7561384,0.02183 c 0,0 -0.098556,1.6162921 -0.2045416,2.4449563 -0.092924,0.7265294 -0.1301634,1.6081412 -0.1301634,2.4449568 0,0.8368155 0.055784,1.4771613 0.1487585,2.6414266 C 8.4700986,9.9464573 8.58951,11.623743 8.58951,11.623743 L 4.8333707,11.601913 C 4.8698857,9.7790123 5.0248069,8.0977298 5.088096,6.4573155 5.1547468,4.7297651 5.1364893,3.2180885 4.8333707,1.5601258 Z"
       style="fill:#69a259;fill-opacity:1;fill-rule:evenodd;stroke-width:0.225651"
       id="path856" />
    <path
       style="fill:#2a8c59;fill-opacity:1;stroke-width:0.264583"
       id="path860"
       sodipodi:type="arc"
       sodipodi:cx="4.8333707"
       sodipodi:cy="1.5601258"
       sodipodi:rx="0.77957588"
       sodipodi:ry="0.79138768"
       sodipodi:start="6.2637894"
       sodipodi:end="1.6113082"
       sodipodi:arc-type="slice"
       d="M 5.6127999,1.5447771 A 0.77957588,0.79138768 0 0 1 5.3787634,2.1255983 0.77957588,0.79138768 0 0 1 4.8017972,2.3508642 l 0.031573,-0.7907384 z" />
    <path
       d="m -10.822484,4.818022 a 0.77957588,0.79138768 0 0 1 -0.234037,0.5808212 0.77957588,0.79138768 0 0 1 -0.576966,0.2252658 l 0.03157,-0.7907383 z"
       sodipodi:arc-type="slice"
       sodipodi:end="1.6113082"
       sodipodi:start="6.2637894"
       sodipodi:ry="0.79138768"
       sodipodi:rx="0.77957588"
       sodipodi:cy="4.8333707"
       sodipodi:cx="-11.601913"
       sodipodi:type="arc"
       id="path862"
       style="fill:#2a8c59;fill-opacity:1;stroke-width:0.264583"
       transform="rotate(-90)" />
    <path
       style="fill:#2a8c59;fill-opacity:1;stroke-width:0.264583"
       id="path864"
       sodipodi:type="arc"
       sodipodi:cx="1.5819558"
       sodipodi:cy="-8.589509"
       sodipodi:rx="0.77957588"
       sodipodi:ry="0.79138768"
       sodipodi:start="6.2637894"
       sodipodi:end="1.6113082"
       sodipodi:arc-type="slice"
       d="M 2.361385,-8.6048577 A 0.77957588,0.79138768 0 0 1 2.1273486,-8.0240365 0.77957588,0.79138768 0 0 1 1.5503823,-7.7987707 L 1.5819558,-8.589509 Z"
       transform="rotate(90)" />
    <path
       transform="scale(-1)"
       d="m -7.8100807,-11.639092 a 0.77957588,0.79138768 0 0 1 -0.2340365,0.580821 0.77957588,0.79138768 0 0 1 -0.5769662,0.225266 l 0.031573,-0.790738 z"
       sodipodi:arc-type="slice"
       sodipodi:end="1.6113082"
       sodipodi:start="6.2637894"
       sodipodi:ry="0.79138768"
       sodipodi:rx="0.77957588"
       sodipodi:cy="-11.623743"
       sodipodi:cx="-8.58951"
       sodipodi:type="arc"
       id="path866"
       style="fill:#2a8c59;fill-opacity:1;stroke-width:0.264583" />
    <g
       aria-label="$"
       transform="matrix(0.03045981,-1.1893873,0.84031831,0.01759921,0,0)"
       id="text870"
       style="font-style:normal;font-weight:normal;font-size:2.85836px;line-height:1.25;font-family:sans-serif;display:inline;fill:#2a8c59;fill-opacity:1;stroke:#2a7c59;stroke-width:0.0714594;stroke-opacity:1">
      <path
         d="m -4.5929411,8.4463849 c 0,0.1442206 -0.056293,0.2642494 -0.1688777,0.3600864 -0.1125851,0.094907 -0.2600624,0.151199 -0.4424317,0.1688777 V 9.4805869 H -5.3689412 V 8.9823274 c -0.1228201,-9.305e-4 -0.2381966,-0.012561 -0.3461295,-0.034892 -0.1079329,-0.023261 -0.2263617,-0.059161 -0.3054504,-0.095449 l 0.015928,-0.2066412 -0.024736,-0.3294261 c 0.020251,-0.1487139 0.1053719,0.2979479 0.1509646,0.3230699 0.045593,0.024192 0.089789,0.044197 0.1325899,0.060014 0.048384,0.017679 0.1046766,0.034427 0.1688778,0.050245 0.065132,0.014887 0.1344509,0.023727 0.2079568,0.026518 V 8.171435 C -5.406158,8.163995 -5.440585,8.157013 -5.4722206,8.1505 -5.5038556,8.14306 -5.5331656,8.135613 -5.5601486,8.128169 -5.7118129,8.09002 -5.8206763,8.032797 -5.8867386,7.9564999 c -0.066063,-0.077228 -0.099094,-0.1721343 -0.099094,-0.2847194 0,-0.1377075 0.053966,-0.2540144 0.1618993,-0.3489209 0.1088633,-0.094906 0.2605275,-0.1502687 0.4549928,-0.1660864 V 6.7771473 h 0.1646907 v 0.3768345 c 0.093976,0.00186 0.1902782,0.013026 0.2889065,0.033497 0.098628,0.02047 0.1615876,0.044916 0.2285804,0.0719 l -0.040222,0.2398712 0.04386,0.2795359 c -0.069785,-0.042802 -0.146152,-0.3270582 -0.2224493,-0.3596242 -0.075367,-0.033496 -0.1749257,-0.054432 -0.2986763,-0.062806 v 0.6015396 c 0.027913,0.00465 0.058153,0.011167 0.090719,0.01954 0.032566,0.00744 0.060945,0.013491 0.085137,0.018144 0.1386379,0.029775 0.2456404,0.08095 0.3210073,0.1535252 0.076297,0.072575 0.114446,0.1716689 0.1144461,0.2972804 z M -5.3689412,7.934169 V 7.3577517 c -0.099559,0.00744 -0.1832997,0.034892 -0.251223,0.082345 -0.067923,0.046523 -0.1018849,0.1116546 -0.1018849,0.1953957 0,0.084671 0.025122,0.1484077 0.075367,0.1912086 0.050245,0.042801 0.142825,0.078624 0.2777409,0.107468 z m 0.5122159,0.5485037 c 0,-0.087463 -0.027448,-0.1511991 -0.082345,-0.1912087 -0.053967,-0.04094 -0.14236,-0.073041 -0.2651799,-0.096302 v 0.577813 c 0.1116547,-0.011165 0.1972566,-0.039544 0.2568058,-0.085137 0.060479,-0.045593 0.090719,-0.1139811 0.090719,-0.2051653 z"
         style="fill:#2a8c59;fill-opacity:1;stroke:#2a7c59;stroke-width:0.0714594;stroke-opacity:1"
         id="path872"
         inkscape:connector-curvature="0"
         sodipodi:nodetypes="scccccccccccccccccscccccccccccccccscccscccccccc" />
    </g>
  </g>
  <g
     style="display:inline"
     inkscape:groupmode="layer"
     id="layer2"
     inkscape:label="Layer 2">
    <g
       transform="translate(-0.0368184,1.1264207)"
       id="g1148">
      <g
         id="g969"
         transform="translate(-0.02997255,-0.2539525)">
        <rect
           style="fill:#b3b3b3;fill-opacity:1;stroke-width:0.252152"
           id="rect965"
           width="0.54038781"
           height="0.25395274"
           x="6.149262"
           y="6.8108592" />
        <rect
           style="fill:#b3b3b3;fill-opacity:1;stroke-width:0.264047"
           id="rect967"
           width="0.057582311"
           height="0.25439569"
           x="6.659677"
           y="6.8108592"
           ry="0.02867466" />
      </g>
      <g
         id="g994"
         style="fill:#9fa5a4;fill-opacity:1"
         transform="translate(-0.00404945,-0.00577587)">
        <rect
           style="fill:#9fa5a4;fill-opacity:1;stroke-width:0.252152"
           id="rect990"
           width="0.54038781"
           height="0.25395274"
           x="6.149262"
           y="6.8108592" />
        <rect
           style="fill:#9fa5a4;fill-opacity:1;stroke-width:0.264047"
           id="rect992"
           width="0.057582311"
           height="0.25439569"
           x="6.659677"
           y="6.8108592"
           ry="0.02867466" />
      </g>
      <g
         id="g79"
         transform="matrix(0.8161943,0,0,1,2.3248362,-0.95214769)">
        <path
           id="rect914"
           style="fill:#1d64c4;fill-opacity:1;stroke:none;stroke-width:0.999999;stroke-opacity:1"
           d="m 26.074219,27.28125 c 2.971017,0.01118 6.042985,0.05664 8.980469,0.05664 3.309301,0 9.865234,-0.695313 9.865234,-0.695313 0.786969,0 1.419922,-0.63295 1.419922,-1.419922 0,-0.786971 -0.632953,-1.421875 -1.419922,-1.421875 0,0 -6.491478,0.50586 -9.800781,0.50586 -3.034126,0 -6.019622,0.04781 -9.044922,0.05664 z"
           transform="matrix(0.26458333,0,0,0.26458333,-0.06681739,0.76839989)"
           inkscape:connector-curvature="0" />
        <path
           id="rect916"
           style="fill:#0457a3;fill-opacity:1;stroke:none;stroke-width:0.266367;stroke-opacity:1"
           d="m 6.8319863,7.9865639 c 1.0346737,0.00803 2.0730273,0.034581 2.9372882,-0.00517 1.1043895,-0.050793 1.6799585,-0.128262 2.0763595,-0.175183 0.346047,-0.040965 0.348299,-0.4402833 0.348299,-0.4402833 0,0 -1.692169,0.1411481 -2.6391157,0.175183 -0.8481147,0.030482 -1.8131332,0.019942 -2.722831,0.014986 z"
           inkscape:connector-curvature="0" />
      </g>
      <g
         id="g75"
         transform="matrix(0.80063676,0,0,1,0.26996398,-0.95214769)">
        <path
           id="path70"
           style="fill:#1d64c4;fill-opacity:1;stroke:none;stroke-width:0.999999;stroke-opacity:1"
           d="m 24.054688,24.369141 h -8.980469 c -3.309302,0 -9.8652346,-0.56836 -9.8652346,-0.56836 -0.7869717,0 -1.421875,0.634904 -1.421875,1.421875 0,0.786972 0.6366177,1.368004 1.421875,1.419922 0,0 6.2588896,0.522217 9.5488276,0.63086 3.004626,0.09922 6.235364,0.01497 9.296876,0 z"
           transform="matrix(0.26458333,0,0,0.26458333,-0.06681739,0.76839989)"
           inkscape:connector-curvature="0" />
        <path
           id="path64"
           style="fill:#0457a3;fill-opacity:1;stroke:none;stroke-width:0.266367;stroke-opacity:1"
           d="M 6.2976521,7.5519654 C 5.3705637,7.547817 4.4281317,7.5444287 3.5665526,7.5137246 2.6365033,7.4805805 0.93518863,7.3633463 0.93518863,7.3633463 c 0,0 -2.1572e-4,0.3948139 0.31936037,0.434082 0.2787654,0.034254 0.7364587,0.06884 1.7027385,0.1224733 0.8971,0.049793 2.1735621,0.063645 3.3403646,0.064595 z"
           inkscape:connector-curvature="0" />
      </g>
      <g
         transform="matrix(0.2040086,0,0,1.6330503,5.0359712,-5.6179303)"
         id="g102">
        <g
           id="g106"
           transform="matrix(0.85568469,0,0,1,0.08852052,0)">
          <path
             sodipodi:nodetypes="cscscccc"
             id="path98"
             style="fill:#1d64c4;fill-opacity:1;stroke:none;stroke-width:0.243614;stroke-opacity:1"
             d="M 6.2976521,7.2160684 H 3.9215697 c -0.8755862,0 -1.8519859,0.00384 -1.8519859,0.00384 -0.2003319,-0.015343 -1.13439517,0.011089 -1.13439517,0.1876122 0,0.1765234 0.16843847,0.306853 0.37620437,0.3184986 0,0 1.7140231,0.099287 2.5844859,0.1236569 0.7949739,0.022256 1.5917481,0.021208 2.4017732,0.01785 z"
             inkscape:connector-curvature="0" />
          <path
             sodipodi:nodetypes="cssscccc"
             id="path100"
             style="fill:#0457a3;fill-opacity:1;stroke:none;stroke-width:0.266367;stroke-opacity:1"
             d="m 6.2739888,7.6107817 c -0.9270884,-0.00415 -2.277601,-0.022049 -3.1445303,-0.033822 -0.3372694,-0.00458 -1.545412,0.00465 -1.9019362,-0.093642 0,0 -0.00433,0.00207 -0.25627006,0.00116 -0.80997893,-0.00291 -0.0362798,0.2736782 0.28329676,0.3129463 0.2787654,0.034254 0.7364587,0.06884 1.7027385,0.1224733 0.8971,0.049793 2.1735621,0.063645 3.3403646,0.064595 z"
             inkscape:connector-curvature="0" />
        </g>
        <g
           transform="matrix(0.85568469,0,0,1,0.08852052,0)"
           id="g112">
          <path
             inkscape:connector-curvature="0"
             d="M 6.2976521,7.2160684 H 3.9215697 c -0.8755862,0 -1.8519859,0.00384 -1.8519859,0.00384 -0.2003319,-0.015343 -1.13439517,0.011089 -1.13439517,0.1876122 0,0.1765234 0.16843847,0.306853 0.37620437,0.3184986 0,0 1.7140231,0.099287 2.5844859,0.1236569 0.7949739,0.022256 1.5917481,0.021208 2.4017732,0.01785 z"
             style="fill:#1d64c4;fill-opacity:1;stroke:none;stroke-width:0.243614;stroke-opacity:1"
             id="path108"
             sodipodi:nodetypes="cscscccc" />
          <path
             inkscape:connector-curvature="0"
             d="m 6.2739888,7.6107817 c -0.9270884,-0.00415 -2.277601,-0.022049 -3.1445303,-0.033822 -0.3372694,-0.00458 -1.545412,0.00465 -1.9019362,-0.093642 0,0 -0.00433,0.00207 -0.25627006,0.00116 -0.80997893,-0.00291 -0.0362798,0.2736782 0.28329676,0.3129463 0.2787654,0.034254 0.7364587,0.06884 1.7027385,0.1224733 0.8971,0.049793 2.1735621,0.063645 3.3403646,0.064595 z"
             style="fill:#0457a3;fill-opacity:1;stroke:none;stroke-width:0.266367;stroke-opacity:1"
             id="path110"
             sodipodi:nodetypes="cssscccc" />
        </g>
      </g>
      <g
         id="g1039">
        <g
           transform="matrix(-0.189438,0,0,1.6330503,8.156375,-5.6166853)"
           id="g126">
          <g
             id="g118"
             transform="matrix(0.85568469,0,0,1,0.08852052,0)">
            <path
               sodipodi:nodetypes="cscscccc"
               id="path114"
               style="fill:#1d64c4;fill-opacity:1;stroke:none;stroke-width:0.243614;stroke-opacity:1"
               d="M 6.2976521,7.2160684 H 3.9215697 c -0.8755862,0 -1.8519859,0.00384 -1.8519859,0.00384 -0.2003319,-0.015343 -1.13439517,0.011089 -1.13439517,0.1876122 0,0.1765234 0.16843847,0.306853 0.37620437,0.3184986 0,0 1.7140231,0.099287 2.5844859,0.1236569 0.7949739,0.022256 1.5917481,0.021208 2.4017732,0.01785 z"
               inkscape:connector-curvature="0" />
            <path
               sodipodi:nodetypes="cssscccc"
               id="path116"
               style="fill:#0457a3;fill-opacity:1;stroke:none;stroke-width:0.266367;stroke-opacity:1"
               d="m 6.2739888,7.6107817 c -0.795259,8.3e-4 -2.2651948,-0.02162 -3.1445303,-0.033822 -0.3371326,-0.00468 -1.545412,0.00465 -1.9019362,-0.093642 0,0 -0.00433,0.00207 -0.25627006,0.00116 -0.80997893,-0.00291 -0.0362798,0.2736782 0.28329676,0.3129463 0.2787654,0.034254 0.7364587,0.06884 1.7027385,0.1224733 0.8971,0.049793 2.1735621,0.063645 3.3403646,0.064595 z"
               inkscape:connector-curvature="0" />
          </g>
          <g
             transform="matrix(0.85568469,0,0,1,0.08852052,0)"
             id="g124">
            <path
               inkscape:connector-curvature="0"
               d="M 6.2976521,7.2160684 H 3.9215697 c -0.8755862,0 -1.8519859,0.00384 -1.8519859,0.00384 -0.2003319,-0.015343 -1.13439517,0.011089 -1.13439517,0.1876122 0,0.1765234 0.16843847,0.306853 0.37620437,0.3184986 0,0 1.7140231,0.099287 2.5844859,0.1236569 0.7949739,0.022256 1.5917481,0.021208 2.4017732,0.01785 z"
               style="fill:#1d64c4;fill-opacity:1;stroke:none;stroke-width:0.243614;stroke-opacity:1"
               id="path120"
               sodipodi:nodetypes="cscscccc" />
            <path
               inkscape:connector-curvature="0"
               d="m 5.3594188,7.6056672 c -0.9270884,-0.00415 -1.363031,-0.016934 -2.2299603,-0.028708 -0.3372694,-0.00458 -1.545412,0.00465 -1.9019362,-0.093642 0,0 -0.00433,0.00207 -0.25627006,0.00116 -0.80997893,-0.00291 -0.0362798,0.2736782 0.28329676,0.3129463 0.2787654,0.034254 0.7364587,0.06884 1.7027385,0.1224733 0.8971,0.049793 2.1735621,0.063645 3.3403646,0.064595 z"
               style="fill:#0457a3;fill-opacity:1;stroke:none;stroke-width:0.266367;stroke-opacity:1"
               id="path122"
               sodipodi:nodetypes="cssscccc" />
          </g>
        </g>
        <path
           d="M 6.9928566,6.3309472 6.7201153,6.1007442 7.0401799,5.976766 7.3759122,5.8556667 7.3232482,6.1948398 7.2602571,6.5461421 Z"
           transform="matrix(0.16787311,1.3973523,-0.20389889,1.1196756,7.231404,-10.053706)"
           inkscape:transform-center-y="0.12937089"
           inkscape:transform-center-x="-0.028464112"
           inkscape:randomized="0"
           inkscape:rounded="0"
           inkscape:flatsided="false"
           sodipodi:arg2="-2.9756327"
           sodipodi:arg1="2.2272215"
           sodipodi:r2="0.40419981"
           sodipodi:r1="0.20630383"
           sodipodi:cy="6.1675177"
           sodipodi:cx="7.1187615"
           sodipodi:sides="3"
           id="path128"
           style="fill:#045795;fill-opacity:1;stroke-width:0.264583"
           sodipodi:type="star" />
        <rect
           transform="rotate(15.848113)"
           y="4.5838985"
           x="8.8129921"
           height="0.2716704"
           width="0.0088588167"
           id="rect953"
           style="fill:#333333;fill-opacity:1;stroke-width:0.264583" />
        <rect
           style="fill:#333333;fill-opacity:1;stroke-width:0.264583"
           id="rect955"
           width="0.0088588167"
           height="0.2716704"
           x="8.7121649"
           y="4.3364019"
           transform="rotate(15.848113)" />
      </g>
      <g
         id="g963">
        <rect
           y="6.8108592"
           x="6.149262"
           height="0.25395274"
           width="0.54038781"
           id="rect957"
           style="fill:#b3b3b3;fill-opacity:1;stroke-width:0.252152" />
        <rect
           ry="0.02867466"
           y="6.8108592"
           x="6.659677"
           height="0.25439569"
           width="0.057582311"
           id="rect959"
           style="fill:#b3b3b3;fill-opacity:1;stroke-width:0.264047" />
      </g>
    </g>
  </g>
</svg>
