<?xml version="1.0" encoding="UTF-8" standalone="no"?>
<svg
   xmlns:dc="http://purl.org/dc/elements/1.1/"
   xmlns:cc="http://creativecommons.org/ns#"
   xmlns:rdf="http://www.w3.org/1999/02/22-rdf-syntax-ns#"
   xmlns:svg="http://www.w3.org/2000/svg"
   xmlns="http://www.w3.org/2000/svg"
   xmlns:sodipodi="http://sodipodi.sourceforge.net/DTD/sodipodi-0.dtd"
   xmlns:inkscape="http://www.inkscape.org/namespaces/inkscape"
   width="150"
   height="50"
   viewBox="0 0 39.687498 13.229167"
   version="1.1"
   id="svg8"
   inkscape:version="0.92.2 (5c3e80d, 2017-08-06)"
   sodipodi:docname="connectPro logo.svg"
   inkscape:export-filename="C:\Users\kikin\Desktop\projects\proceso\src\assets\connectPro logo.png"
   inkscape:export-xdpi="655.35999"
   inkscape:export-ydpi="655.35999">
  <defs
     id="defs2" />
  <sodipodi:namedview
     showguides="false"
     id="base"
     pagecolor="#ffffff"
     bordercolor="#666666"
     borderopacity="1.0"
     inkscape:pageopacity="0.0"
     inkscape:pageshadow="2"
     inkscape:zoom="5.6568545"
     inkscape:cx="82.290106"
     inkscape:cy="18.971149"
     inkscape:document-units="mm"
     inkscape:current-layer="layer1"
     inkscape:document-rotation="0"
     showgrid="false"
     units="mm"
     inkscape:window-width="1355"
     inkscape:window-height="696"
     inkscape:window-x="-3"
     inkscape:window-y="0"
     inkscape:window-maximized="0" />
  <metadata
     id="metadata5">
    <rdf:RDF>
      <cc:Work
         rdf:about="">
        <dc:format>image/svg+xml</dc:format>
        <dc:type
           rdf:resource="http://purl.org/dc/dcmitype/StillImage" />
        <dc:title />
      </cc:Work>
    </rdf:RDF>
  </metadata>
  <g
     inkscape:label="Layer 3"
     id="layer3"
     inkscape:groupmode="layer"
     style="display:inline" />
  <g
     inkscape:label="Layer 1"
     inkscape:groupmode="layer"
     id="layer1"
     style="display:inline">
    <g
       aria-label="ConnectPro"
       transform="matrix(0.85442435,0,0,1.0077038,0.23491441,0.94364293)"
       style="font-style:normal;font-variant:normal;font-weight:normal;font-stretch:normal;font-size:9.83381844px;line-height:1.25;font-family:Georgia;-inkscape-font-specification:Georgia;letter-spacing:0px;word-spacing:0px;fill:#0457a3;fill-opacity:1;stroke:none;stroke-width:0.33524379"
       id="text5638">
      <g
         id="g5671"
         transform="translate(0.60936733,-0.17232055)">
        <path
           inkscape:connector-curvature="0"
           id="path5640"
           style="font-style:normal;font-variant:normal;font-weight:normal;font-stretch:normal;font-family:Bahnschrift;-inkscape-font-specification:Bahnschrift;fill:#0457a3;fill-opacity:1;stroke-width:0.22944039"
           d="m 18.101076,5.6065825 q -0.562804,0 -0.991431,-0.1941319 Q 16.684746,5.2183189 16.449933,4.8619275 16.215121,4.5055362 16.215121,4.0361429 V 2.8800444 q 0,-0.4693934 0.234812,-0.8257846 0.234813,-0.3563912 0.659712,-0.5505231 0.428627,-0.1970293 0.991431,-0.1970293 0.465898,0 0.857253,0.1564644 0.391353,0.153567 0.652257,0.4375211 0.264629,0.2839539 0.357809,0.6577301 v 0 h -0.778981 v 0 q -0.07082,-0.1970293 -0.23854,-0.3505962 -0.163996,-0.1564645 -0.387627,-0.2404916 -0.22363,-0.084027 -0.462171,-0.084027 -0.33172,0 -0.581441,0.124592 -0.249721,0.1245921 -0.387627,0.3505963 -0.137905,0.2231067 -0.137905,0.5215482 v 1.1560985 q 0,0.295544 0.137905,0.5215482 0.137906,0.2260042 0.387627,0.3505963 0.249721,0.1216946 0.581441,0.1216946 0.242267,0 0.462171,-0.078232 0.223631,-0.078232 0.387627,-0.2317993 0.167723,-0.1535669 0.23854,-0.3650837 v 0 h 0.778981 v 0 q -0.09318,0.3737762 -0.357809,0.6577302 -0.264631,0.2839538 -0.655985,0.4404182 -0.391354,0.1535673 -0.853525,0.1535668 z" />
        <path
           inkscape:connector-curvature="0"
           id="path5642"
           style="font-style:normal;font-variant:normal;font-weight:normal;font-stretch:normal;font-family:Bahnschrift;-inkscape-font-specification:Bahnschrift;fill:#0457a3;fill-opacity:1;stroke-width:0.22944039"
           d="m 22.461881,5.6065825 q -0.503169,0 -0.86098,-0.1535673 Q 21.243092,5.2994485 21.053005,5.006802 20.866647,4.7112581 20.866647,4.296917 V 3.8072412 q 0,-0.4085461 0.186358,-0.6982951 0.190087,-0.2926465 0.547896,-0.4433159 0.357811,-0.1535669 0.86098,-0.1535669 0.50317,0 0.86098,0.1535669 0.35781,0.1506694 0.544168,0.4433159 0.190087,0.289749 0.190087,0.6982951 v 0.4983683 q 0,0.4114435 -0.190087,0.70409 -0.186358,0.289749 -0.544168,0.4433157 -0.35781,0.1535673 -0.86098,0.1535673 z m 0,-0.5621131 q 0.398809,0 0.614985,-0.1941318 0.219905,-0.1941318 0.219905,-0.5447281 V 3.8072412 q 0,-0.3505963 -0.219905,-0.5418306 -0.216176,-0.1912344 -0.614985,-0.1912344 -0.398809,0 -0.618713,0.1912344 -0.216176,0.1912343 -0.216176,0.5418306 v 0.4983683 q 0,0.3505963 0.216176,0.5447281 0.219904,0.1941318 0.618713,0.1941318 z" />
        <path
           inkscape:connector-curvature="0"
           id="path5644"
           style="font-style:normal;font-variant:normal;font-weight:normal;font-stretch:normal;font-family:Bahnschrift;-inkscape-font-specification:Bahnschrift;fill:#0457a3;fill-opacity:1;stroke-width:0.22944039"
           d="m 25.137999,2.5555255 h 0.760345 v 3.0075947 h -0.760345 z m 2.348126,1.1850734 q 0,-0.3187239 -0.21245,-0.4925733 -0.212449,-0.1738494 -0.596349,-0.1738494 -0.372718,0 -0.577714,0.153567 -0.201268,0.1535669 -0.201268,0.431726 l -0.07827,-0.579498 q 0.178904,-0.2723641 0.465898,-0.420136 0.29072,-0.1477719 0.641075,-0.1477719 0.629894,0 0.972796,0.3216212 0.346627,0.3187239 0.346627,0.9040169 v 1.8254188 h -0.760345 z" />
        <path
           inkscape:connector-curvature="0"
           id="path5646"
           style="font-style:normal;font-variant:normal;font-weight:normal;font-stretch:normal;font-family:Bahnschrift;-inkscape-font-specification:Bahnschrift;fill:#0457a3;fill-opacity:1;stroke-width:0.22944039"
           d="m 29.401896,2.5555255 h 0.760346 v 3.0075947 h -0.760346 z m 2.348126,1.1850734 q 0,-0.3187239 -0.212449,-0.4925733 -0.212449,-0.1738494 -0.596349,-0.1738494 -0.372719,0 -0.577714,0.153567 -0.201268,0.1535669 -0.201268,0.431726 l -0.07827,-0.579498 q 0.178904,-0.2723641 0.465898,-0.420136 0.29072,-0.1477719 0.641075,-0.1477719 0.629894,0 0.972795,0.3216212 0.346628,0.3187239 0.346628,0.9040169 v 1.8254188 h -0.760346 z" />
        <path
           inkscape:connector-curvature="0"
           id="path5648"
           style="font-style:normal;font-variant:normal;font-weight:normal;font-stretch:normal;font-family:Bahnschrift;-inkscape-font-specification:Bahnschrift;fill:#0457a3;fill-opacity:1;stroke-width:0.22944039"
           d="m 35.249849,5.6065825 q -0.536715,0 -0.916887,-0.1564643 Q 33.952789,5.2936537 33.751521,4.9923146 33.55398,4.6880781 33.55398,4.2592496 V 3.9202433 q 0,-0.4462135 0.190087,-0.7620398 0.193813,-0.3158265 0.559078,-0.4809834 0.365263,-0.1651568 0.879614,-0.1651568 0.484534,0 0.827435,0.1883368 0.342901,0.1883368 0.521806,0.5447281 0.182633,0.3563912 0.182633,0.8547595 V 4.296917 h -2.60903 V 3.8217287 h 1.885955 v 0 Q 35.958009,3.4537474 35.745564,3.2509232 35.536842,3.0452014 35.182759,3.0452014 q -0.432353,0 -0.670893,0.2202092 -0.234812,0.2202092 -0.234812,0.6229603 v 0.3824687 q 0,0.3737763 0.253448,0.573703 0.253449,0.1999268 0.719347,0.1999268 0.231085,0 0.458443,-0.072437 0.227359,-0.072437 0.406264,-0.2028244 v 0 l 0.499442,0.3882637 v 0 q -0.286993,0.2144147 -0.644803,0.3332115 -0.35781,0.1158997 -0.719346,0.1158993 z" />
        <path
           inkscape:connector-curvature="0"
           id="path5650"
           style="font-style:normal;font-variant:normal;font-weight:normal;font-stretch:normal;font-family:Bahnschrift;-inkscape-font-specification:Bahnschrift;fill:#0457a3;fill-opacity:1;stroke-width:0.22944039"
           d="m 39.327388,5.6065825 q -0.529261,0 -0.905707,-0.1535673 Q 38.048963,5.2994485 37.851423,5.006802 37.653882,4.7141555 37.653882,4.2998145 V 3.8043437 q 0,-0.4085461 0.197541,-0.6982951 0.19754,-0.289749 0.570258,-0.4404184 0.376446,-0.1535669 0.905707,-0.1535669 0.301901,0 0.566532,0.05795 0.268356,0.055052 0.480806,0.1622596 0.212449,0.1072071 0.354083,0.260774 v 0 l -0.547897,0.3824687 v 0 Q 40.016917,3.2306413 39.797012,3.152409 39.577108,3.074177 39.338569,3.074177 q -0.439808,0 -0.682075,0.1912344 -0.242266,0.1912343 -0.242266,0.5389331 v 0.4954708 q 0,0.3563912 0.238539,0.5505231 0.242267,0.1941318 0.685802,0.1941318 0.242268,0 0.46217,-0.084027 0.219905,-0.084027 0.380173,-0.2375941 v 0 l 0.547897,0.4114435 v 0 q -0.14536,0.1506698 -0.35781,0.2578764 -0.21245,0.1043096 -0.480807,0.1593621 -0.26463,0.055051 -0.562804,0.055051 z" />
        <path
           inkscape:connector-curvature="0"
           id="path5652"
           style="font-style:normal;font-variant:normal;font-weight:normal;font-stretch:normal;font-family:Bahnschrift;-inkscape-font-specification:Bahnschrift;fill:#0457a3;fill-opacity:1;stroke-width:0.22944039"
           d="m 42.573765,5.5776074 q -0.469625,0 -0.689529,-0.1999267 Q 41.66806,5.1748565 41.66806,4.7807978 V 1.6804836 h 0.760345 v 3.1061092 q 0,0.1101047 0.0559,0.1709519 0.05591,0.05795 0.163996,0.05795 h 0.365263 V 5.5776074 Z M 41.26925,2.5555255 h 1.744322 V 3.0886636 H 41.26925 Z" />
        <path
           inkscape:connector-curvature="0"
           id="path5654"
           style="font-style:normal;font-variant:normal;font-weight:normal;font-stretch:normal;font-family:Bahnschrift;-inkscape-font-specification:Bahnschrift;fill:#e4a711;fill-opacity:1;stroke-width:0.22944039"
           d="m 16.709029,8.2140705 h 1.73314 q 0.245995,0 0.432353,-0.089822 0.18636,-0.089823 0.286994,-0.2549795 0.104361,-0.1651568 0.104361,-0.379571 v 0 q 0,-0.2173119 -0.104361,-0.3824688 -0.100634,-0.1651569 -0.286994,-0.254979 -0.186358,-0.09272 -0.432353,-0.09272 h -1.73314 V 6.1974174 h 1.70705 q 0.484534,0 0.853525,0.1622596 0.368991,0.1593619 0.570259,0.4520084 0.204995,0.2926465 0.204995,0.6780127 v 0 q 0,0.3853661 -0.204995,0.6780126 -0.201268,0.289749 -0.570259,0.4491109 -0.368991,0.159362 -0.853525,0.159362 h -1.70705 z M 16.317674,6.1974174 h 0.760345 v 4.2129506 h -0.760345 z" />
        <path
           inkscape:connector-curvature="0"
           id="path5656"
           style="font-style:normal;font-variant:normal;font-weight:normal;font-stretch:normal;font-family:Bahnschrift;-inkscape-font-specification:Bahnschrift;fill:#e4a711;fill-opacity:1;stroke-width:0.22944039"
           d="m 20.76468,7.3359174 h 0.760345 V 10.343512 H 20.76468 Z m 2.128221,0.7127825 q -0.100634,-0.095617 -0.253449,-0.1448745 -0.152814,-0.049257 -0.354082,-0.049257 -0.361536,0 -0.562804,0.1564644 -0.197541,0.1535671 -0.197541,0.4288286 l -0.07827,-0.5794981 q 0.178905,-0.2694666 0.462171,-0.4172386 0.283266,-0.1506694 0.626166,-0.1506694 0.264631,0 0.47708,0.060847 0.216177,0.05795 0.376446,0.1738493 z" />
        <path
           inkscape:connector-curvature="0"
           id="path5658"
           style="font-style:normal;font-variant:normal;font-weight:normal;font-stretch:normal;font-family:Bahnschrift;-inkscape-font-specification:Bahnschrift;fill:#e4a711;fill-opacity:1;stroke-width:0.22944039"
           d="m 25.438566,10.386975 q -0.503171,0 -0.86098,-0.153568 Q 24.219776,10.079841 24.02969,9.7871942 23.84333,9.4916505 23.84333,9.0773088 V 8.587633 q 0,-0.4085461 0.18636,-0.6982951 0.190086,-0.2926464 0.547896,-0.4433159 0.357809,-0.1535669 0.86098,-0.1535669 0.503169,0 0.860979,0.1535669 0.357809,0.1506695 0.544168,0.4433159 0.190087,0.289749 0.190087,0.6982951 v 0.4983683 q 0,0.411444 -0.190087,0.7040899 -0.186359,0.2897498 -0.544168,0.4433158 -0.35781,0.153568 -0.860979,0.153568 z m 0,-0.5621133 q 0.398808,0 0.614984,-0.194132 0.219905,-0.1941322 0.219905,-0.5447284 V 8.587633 q 0,-0.3505963 -0.219905,-0.5418306 -0.216176,-0.1912343 -0.614984,-0.1912343 -0.39881,0 -0.618713,0.1912343 -0.216177,0.1912343 -0.216177,0.5418306 v 0.4983683 q 0,0.3505962 0.216177,0.5447284 0.219903,0.194132 0.618713,0.194132 z" />
      </g>
    </g>
    <g
       id="g1138"
       transform="matrix(0.89042139,0,0,1,-13.204456,-4.1388153)">
      <g
         style="display:inline"
         inkscape:label="Layer 3"
         id="layer1-92" />
      <g
         inkscape:label="Layer 3"
         id="layer3-8"
         style="display:inline"
         transform="translate(25.781156,43.541939)" />
      <g
         inkscape:label="Layer 1"
         id="layer1-9"
         style="display:inline"
         transform="translate(25.781156,43.541939)" />
      <g
         id="g6631"
         inkscape:export-xdpi="1748.48"
         inkscape:export-ydpi="1748.48"
         transform="translate(0,26.458333)">
        <g
           transform="matrix(2.363463,0,0,1.8836783,43.423122,-8.1569471)"
           id="g1771">
          <g
             inkscape:label="Layer 1"
             id="layer1-5"
             style="display:inline" />
          <g
             id="layer5"
             inkscape:label="Layer 2"
             style="display:inline"
             transform="translate(-15.403111,-9.7053879)">
            <g
               id="g1141"
               inkscape:export-filename="C:\Users\kikin\Desktop\projects\proceso\src\assets\icon\favicon.png"
               inkscape:export-xdpi="1966.08"
               inkscape:export-ydpi="1966.08">
              <path
                 style="display:inline;opacity:1;fill:#b3b3b3;fill-opacity:1;stroke:none;stroke-width:14.83199883;stroke-linecap:round;stroke-linejoin:round;stroke-miterlimit:4;stroke-dasharray:none;stroke-dashoffset:0;stroke-opacity:1;paint-order:stroke fill markers"
                 d="M 32.238281 6.6816406 C 30.270857 6.6816406 28.6875 8.1003243 28.6875 9.8613281 L 28.6875 19.042969 C 28.6875 20.803973 30.270857 22.222656 32.238281 22.222656 C 34.205705 22.222656 35.789062 20.803973 35.789062 19.042969 L 35.789062 9.8613281 C 35.789063 8.1003243 34.205705 6.6816406 32.238281 6.6816406 z M 32.400391 8.0214844 A 1.5810962 1.3735855 0 0 1 33.980469 9.3945312 A 1.5810962 1.3735855 0 0 1 32.400391 10.767578 A 1.5810962 1.3735855 0 0 1 30.818359 9.3945312 A 1.5810962 1.3735855 0 0 1 32.400391 8.0214844 z "
                 transform="matrix(0.12572397,0,0,0.140461,3.3048992,2.1868161)"
                 id="rect1075-5" />
              <path
                 style="opacity:1;fill:#b3b3b3;fill-opacity:1;stroke:none;stroke-width:14.83199883;stroke-linecap:round;stroke-linejoin:round;stroke-miterlimit:4;stroke-dasharray:none;stroke-dashoffset:0;stroke-opacity:1;paint-order:stroke fill markers"
                 d="M 19.611328 6.6816406 C 17.643904 6.6816406 16.060547 8.1003244 16.060547 9.8613281 L 16.060547 19.042969 C 16.060547 20.803972 17.643904 22.222656 19.611328 22.222656 C 21.578752 22.222656 23.162109 20.803972 23.162109 19.042969 L 23.162109 9.8613281 C 23.162109 8.1003244 21.578752 6.6816406 19.611328 6.6816406 z M 19.564453 7.9785156 A 1.5810962 1.3735856 0 0 1 21.146484 9.3535156 A 1.5810962 1.3735856 0 0 1 19.564453 10.726562 A 1.5810962 1.3735856 0 0 1 17.984375 9.3535156 A 1.5810962 1.3735856 0 0 1 19.564453 7.9785156 z "
                 transform="matrix(0.12572397,0,0,0.140461,3.3048992,2.1868161)"
                 id="rect1075" />
              <g
                 transform="matrix(1,0,0,0.90032272,0,0.48460291)"
                 id="g1065"
                 style="display:inline">
                <g
                   id="g1050">
                  <path
                     style="opacity:1;fill:#0457a3;fill-opacity:1;stroke:none;stroke-width:14.91423512;stroke-linecap:round;stroke-linejoin:round;stroke-miterlimit:4;stroke-dasharray:none;stroke-dashoffset:0;stroke-opacity:1;paint-order:stroke fill markers"
                     d="m 15.361328,19.044922 c -4.419085,0 -7.9765624,2.54976 -7.9765624,5.720703 v 13.994141 c 0,3.170943 3.5574774,5.722656 7.9765624,5.722656 l 12.871094,0.04102 h 4.019531 c -9.14e-4,-0.03875 -0.07185,-2.552929 -3.267578,-4.503907 -1.344204,-0.820629 -2.724098,-1.147579 -3.886719,-1.259765 h -2.021484 c -0.03746,0.0038 -0.09774,0.0038 -0.132813,0.0078 l 0.05078,-0.0078 h -3.421875 c -2.5778,0 -4.654297,-1.490127 -4.654297,-3.339844 v -8.16211 c 0,-1.849716 2.076497,-3.33789 4.654297,-3.33789 h 16.691406 c 2.577799,0 4.652344,1.488174 4.652344,3.33789 v 8.16211 c 0,0.704488 -1.634718,1.35505 -3.794922,1.892578 l 1.283203,2.824219 1.402344,3.126953 c 0,0 8.644531,-1.332963 8.644531,-4.503906 V 24.765625 c 0,-3.170943 -3.559431,-5.720703 -7.978516,-5.720703 z"
                     transform="matrix(0.11194731,0,0,0.15601183,3.4066368,1.89067)"
                     id="rect1026"
                     inkscape:connector-curvature="0" />
                </g>
                <ellipse
                   style="opacity:1;fill:#0457a3;fill-opacity:1;stroke:none;stroke-width:1.90841258;stroke-linecap:round;stroke-linejoin:round;stroke-miterlimit:4;stroke-dasharray:none;stroke-dashoffset:0;stroke-opacity:1;paint-order:stroke fill markers"
                   id="path1058"
                   cx="7.7369957"
                   cy="8.1690111"
                   rx="0.49402669"
                   ry="0.49609369" />
              </g>
            </g>
          </g>
        </g>
      </g>
    </g>
  </g>
  <g
     style="display:inline"
     inkscape:groupmode="layer"
     id="layer2"
     inkscape:label="Layer 2" />
</svg>
