<?xml version="1.0" encoding="UTF-8" standalone="no"?>
<svg
   xmlns:dc="http://purl.org/dc/elements/1.1/"
   xmlns:cc="http://creativecommons.org/ns#"
   xmlns:rdf="http://www.w3.org/1999/02/22-rdf-syntax-ns#"
   xmlns:svg="http://www.w3.org/2000/svg"
   xmlns="http://www.w3.org/2000/svg"
   xmlns:sodipodi="http://sodipodi.sourceforge.net/DTD/sodipodi-0.dtd"
   xmlns:inkscape="http://www.inkscape.org/namespaces/inkscape"
   width="30.816404"
   height="28.340227"
   viewBox="0 0 8.1535066 7.4983519"
   version="1.1"
   id="svg8"
   inkscape:version="0.92.2 (5c3e80d, 2017-08-06)"
   sodipodi:docname="plug-head.svg"
   inkscape:export-filename="C:\Users\kikin\Desktop\projects\proceso\src\assets\connectPro splash.png"
   inkscape:export-xdpi="1748.48"
   inkscape:export-ydpi="1748.48">
  <defs
     id="defs2" />
  <sodipodi:namedview
     showguides="false"
     id="base"
     pagecolor="#ffffff"
     bordercolor="#666666"
     borderopacity="1.0"
     inkscape:pageopacity="0.0"
     inkscape:pageshadow="2"
     inkscape:zoom="16"
     inkscape:cx="2.829058"
     inkscape:cy="17.712889"
     inkscape:document-units="mm"
     inkscape:current-layer="g1771"
     inkscape:document-rotation="0"
     showgrid="false"
     units="mm"
     inkscape:window-width="1366"
     inkscape:window-height="705"
     inkscape:window-x="-8"
     inkscape:window-y="-8"
     inkscape:window-maximized="1"
     fit-margin-top="0"
     fit-margin-left="0"
     fit-margin-right="0"
     fit-margin-bottom="0" />
  <metadata
     id="metadata5">
    <rdf:RDF>
      <cc:Work
         rdf:about="">
        <dc:format>image/svg+xml</dc:format>
        <dc:type
           rdf:resource="http://purl.org/dc/dcmitype/StillImage" />
        <dc:title />
      </cc:Work>
    </rdf:RDF>
  </metadata>
  <g
     inkscape:groupmode="layer"
     id="layer1"
     inkscape:label="Layer 3"
     style="display:inline"
     transform="translate(-15.899288,-12.72677)" />
  <g
     style="display:inline"
     inkscape:groupmode="layer"
     id="layer2"
     inkscape:label="Layer 2"
     transform="translate(-15.899288,13.731563)">
    <g
       inkscape:label="Layer 3"
       id="layer3"
       style="display:inline"
       transform="translate(25.781156,17.083606)" />
    <g
       inkscape:label="Layer 1"
       id="layer1-9"
       style="display:inline"
       transform="translate(25.781156,17.083606)" />
    <g
       id="g6631"
       inkscape:export-xdpi="1748.48"
       inkscape:export-ydpi="1748.48">
      <g
         id="g965"
         transform="matrix(0.75906918,0,0,1,4.8889618,-4.689392)">
        <g
           id="g1771"
           transform="matrix(1.7735527,0,0,1.4107821,8.3912465,-13.451416)">
          <g
             style="display:inline"
             id="layer1-5"
             inkscape:label="Layer 1" />
          <g
             style="display:inline"
             inkscape:label="Layer 2"
             id="layer5">
            <g
               inkscape:export-ydpi="1966.08"
               inkscape:export-xdpi="1966.08"
               inkscape:export-filename="C:\Users\kikin\Desktop\projects\proceso\src\assets\icon\favicon.png"
               id="g1141">
              <path
                 style="display:inline;opacity:1;fill:#b3b3b3;fill-opacity:1;stroke:none;stroke-width:10.26636791;stroke-linecap:round;stroke-linejoin:round;stroke-miterlimit:4;stroke-dasharray:none;stroke-dashoffset:0;stroke-opacity:1;paint-order:stroke fill markers"
                 d="M 19.898438 0 C 18.639863 0 17.626953 1.0619544 17.626953 2.3808594 L 17.626953 9.2578125 C 17.626953 10.576717 18.639863 11.638672 19.898438 11.638672 C 21.157012 11.638672 22.169922 10.576717 22.169922 9.2578125 L 22.169922 2.3808594 C 22.169922 1.0619544 21.157012 0 19.898438 0 z M 20.001953 1.0019531 A 1.0114382 1.0287477 0 0 1 21.013672 2.03125 A 1.0114382 1.0287477 0 0 1 20.001953 3.0605469 A 1.0114382 1.0287477 0 0 1 18.990234 2.03125 A 1.0114382 1.0287477 0 0 1 20.001953 1.0019531 z "
                 transform="matrix(0.1965337,0,0,0.18754373,3.4471995,3.1253905)"
                 id="rect1075-5" />
              <path
                 style="opacity:1;fill:#b3b3b3;fill-opacity:1;stroke:none;stroke-width:10.26636791;stroke-linecap:round;stroke-linejoin:round;stroke-miterlimit:4;stroke-dasharray:none;stroke-dashoffset:0;stroke-opacity:1;paint-order:stroke fill markers"
                 d="M 11.822266 0 C 10.563691 0 9.5488281 1.0619545 9.5488281 2.3808594 L 9.5488281 9.2578125 C 9.5488281 10.576717 10.563691 11.638672 11.822266 11.638672 C 13.08084 11.638672 14.09375 10.576717 14.09375 9.2578125 L 14.09375 2.3808594 C 14.09375 1.0619545 13.08084 0 11.822266 0 z M 11.791016 0.97070312 A 1.0114382 1.0287478 0 0 1 12.802734 2 A 1.0114382 1.0287478 0 0 1 11.791016 3.0292969 A 1.0114382 1.0287478 0 0 1 10.78125 2 A 1.0114382 1.0287478 0 0 1 11.791016 0.97070312 z "
                 transform="matrix(0.1965337,0,0,0.18754373,3.4471995,3.1253905)"
                 id="rect1075" />
              <g
                 style="display:inline"
                 id="g1065"
                 transform="matrix(1,0,0,0.90032272,0,0.48460291)">
                <g
                   id="g1050">
                  <path
                     style="opacity:1;fill:#0457a3;fill-opacity:1;stroke:none;stroke-width:11.18086052;stroke-linecap:round;stroke-linejoin:round;stroke-miterlimit:4;stroke-dasharray:none;stroke-dashoffset:0;stroke-opacity:1;paint-order:stroke fill markers"
                     d="m 66.078125,57.359375 c -3.3161,0 -5.986328,1.910276 -5.986328,4.285156 V 72.125 c 0,2.37488 2.670228,4.285156 5.986328,4.285156 l 9.658203,0.03125 h 3.015625 c -6.86e-4,-0.02902 -0.05308,-1.911861 -2.451172,-3.373047 C 75.220085,72.409878 74.12839,72.190526 73.220703,72.125 h -1.349609 c -0.02926,0.003 -0.07618,0.0027 -0.103516,0.0059 l 0.03906,-0.0059 h -2.570313 c -1.934391,0 -3.492187,-1.114653 -3.492187,-2.5 v -6.113281 c 0,-1.385347 1.557796,-2.5 3.492187,-2.5 h 12.525391 c 1.934391,0 3.492187,1.114653 3.492187,2.5 V 69.625 c 0,0.527341 -1.225984,1.015512 -2.845703,1.417969 l 0.960938,2.113281 1.052734,2.341797 c 0,0 6.486328,-0.998167 6.486328,-3.373047 V 61.644531 c 0,-2.37488 -2.670228,-4.285156 -5.986328,-4.285156 z"
                     transform="matrix(0.14918267,0,0,0.20830722,-4.7313206,-7.0866662)"
                     id="rect1026"
                     inkscape:connector-curvature="0" />
                </g>
                <ellipse
                   ry="0.49609369"
                   rx="0.49402669"
                   cy="8.1690111"
                   cx="7.7369957"
                   id="path1058"
                   style="opacity:1;fill:#0457a3;fill-opacity:1;stroke:none;stroke-width:1.90841258;stroke-linecap:round;stroke-linejoin:round;stroke-miterlimit:4;stroke-dasharray:none;stroke-dashoffset:0;stroke-opacity:1;paint-order:stroke fill markers" />
              </g>
            </g>
          </g>
        </g>
      </g>
    </g>
  </g>
</svg>
